<?xml version="1.0" encoding="iso-8859-1"?>
<!-- Generator: Adobe Illustrator 21.0.0, SVG Export Plug-In . SVG Version: 6.00 Build 0)  -->
<svg version="1.1" id="Capa_1" xmlns="http://www.w3.org/2000/svg" xmlns:xlink="http://www.w3.org/1999/xlink" x="0px" y="0px"
	 viewBox="0 0 511.999 511.999" style="enable-background:new 0 0 511.999 511.999;" xml:space="preserve">
<g>
	<g>
		<path d="M466.165,446.486L398.57,292.122c22.522-30.452,35.858-68.088,35.858-108.785c0-35.773-10.309-70.439-29.811-100.248
			c-2.269-3.467-6.917-4.438-10.382-2.17c-3.466,2.268-4.438,6.916-2.17,10.382c17.902,27.362,27.364,59.188,27.364,92.036
			c0,92.822-75.516,168.337-168.337,168.337S82.755,276.158,82.755,183.337C82.754,90.516,158.27,15,251.091,15
			c47.497,0,93.021,20.22,124.899,55.474c2.779,3.072,7.521,3.311,10.593,0.533c3.072-2.778,3.311-7.521,0.533-10.593
			C352.4,22.02,302.821,0,251.091,0C149.999,0,67.754,82.245,67.754,183.337c0,44.358,15.838,85.085,42.151,116.829l-64.072,146.32
			c-1.118,2.553-0.728,5.516,1.013,7.692c1.74,2.177,4.544,3.208,7.281,2.68l76.696-14.831l41.117,66.42
			c1.373,2.218,3.792,3.552,6.375,3.552c0.177,0,0.354-0.006,0.532-0.019c2.78-0.197,5.222-1.92,6.34-4.473l61.694-140.887
			c1.4,0.032,2.803,0.053,4.21,0.053c4.65,0,9.259-0.177,13.823-0.519l61.898,141.353c1.118,2.553,3.56,4.276,6.34,4.473
			c0.178,0.012,0.355,0.019,0.532,0.019c2.583,0,5.002-1.334,6.375-3.552l41.117-66.42l76.696,14.831
			c2.735,0.529,5.541-0.503,7.281-2.68C466.894,452.002,467.283,449.04,466.165,446.486z M177.176,488.408l-36.321-58.673
			c-1.639-2.647-4.745-4.006-7.801-3.416L65.303,439.42l55.647-127.081c28.795,29.047,67.213,48.531,110.018,53.226L177.176,488.408
			z M378.944,426.318c-3.057-0.59-6.162,0.768-7.801,3.416l-36.321,58.673l-54.343-124.1c42.434-6.867,80.03-28.346,107.448-59.096
			l58.768,134.208L378.944,426.318z"/>
	</g>
</g>
<g>
	<g>
		<path d="M314.78,155.521c-4.142,0-7.5,3.358-7.5,7.5v11.355c0,4.142,3.358,7.5,7.5,7.5c4.142,0,7.5-3.358,7.5-7.5v-11.355
			C322.28,158.879,318.923,155.521,314.78,155.521z"/>
	</g>
</g>
<g>
	<g>
		<path d="M187.402,155.521c-4.142,0-7.5,3.358-7.5,7.5v11.355c0,4.142,3.358,7.5,7.5,7.5c4.142,0,7.5-3.358,7.5-7.5v-11.355
			C194.902,158.879,191.544,155.521,187.402,155.521z"/>
	</g>
</g>
<g>
	<g>
		<path d="M320.459,188.342h-11.355c-4.143,0-7.5,3.358-7.5,7.5c0,4.142,3.358,7.5,7.5,7.5h11.355c4.142,0,7.5-3.358,7.5-7.5
			C327.959,191.7,324.6,188.342,320.459,188.342z"/>
	</g>
</g>
<g>
	<g>
		<path d="M193.079,188.342h-11.355c-4.142,0-7.5,3.358-7.5,7.5c0,4.142,3.358,7.5,7.5,7.5h11.355c4.142,0,7.5-3.358,7.5-7.5
			C200.579,191.7,197.221,188.342,193.079,188.342z"/>
	</g>
</g>
<g>
	<g>
		<path d="M268.29,166.056h-34.397c-4.142,0-7.5,3.358-7.5,7.5v12.899c0,13.619,11.08,24.699,24.698,24.699
			c13.619-0.001,24.699-11.08,24.699-24.699v-12.899C275.79,169.414,272.432,166.056,268.29,166.056z M260.79,186.455
			c0,5.348-4.351,9.699-9.699,9.699c-5.348,0-9.698-4.352-9.698-9.699v-5.399h19.397V186.455z"/>
	</g>
</g>
<g>
	<g>
		<path d="M251.091,44.132c-31.734,0-62.779,10.961-87.417,30.866c-3.222,2.603-3.724,7.325-1.121,10.547
			c2.603,3.223,7.327,3.726,10.547,1.121c21.979-17.755,49.677-27.534,77.992-27.534c68.487,0,124.205,55.718,124.205,124.205
			s-55.718,124.205-124.205,124.205s-124.205-55.718-124.205-124.205c0-28.47,9.37-55.25,27.096-77.446
			c2.584-3.237,2.056-7.956-1.181-10.541c-3.236-2.586-7.956-2.057-10.541,1.18c-19.872,24.882-30.375,54.899-30.375,86.807
			c0,76.758,62.447,139.205,139.205,139.205s139.205-62.447,139.205-139.205S327.85,44.132,251.091,44.132z"/>
	</g>
</g>
<g>
</g>
<g>
</g>
<g>
</g>
<g>
</g>
<g>
</g>
<g>
</g>
<g>
</g>
<g>
</g>
<g>
</g>
<g>
</g>
<g>
</g>
<g>
</g>
<g>
</g>
<g>
</g>
<g>
</g>
</svg>
