<?xml version="1.0"?>
<svg xmlns="http://www.w3.org/2000/svg" xmlns:xlink="http://www.w3.org/1999/xlink" version="1.1" id="Capa_1" x="0px" y="0px" viewBox="0 0 512 512" style="enable-background:new 0 0 512 512;" xml:space="preserve" width="512px" height="512px"><g><g>
	<g>
		<path d="M256,149.603c-40.204,0-72.911,32.707-72.911,72.911c0,40.204,32.708,72.911,72.911,72.911s72.911-32.708,72.911-72.911    C328.911,182.311,296.204,149.603,256,149.603z M256,263.021c-22.338,0-40.506-18.174-40.506-40.506    c0-22.338,18.168-40.506,40.506-40.506s40.506,18.168,40.506,40.506S278.338,263.021,256,263.021z" data-original="#000000" class="active-path" data-old_color="#000000" fill="#FFFFFF"/>
	</g>
</g><g>
	<g>
		<path d="M256,262.481c-59.858,0-108.557,48.699-108.557,108.557v24.304c0,8.949,7.253,16.203,16.203,16.203    c8.949,0,16.203-7.253,16.203-16.203v-24.304c0-41.992,34.16-76.152,76.152-76.152c41.992,0,76.152,34.166,76.152,76.152v24.304    c0,8.949,7.253,16.203,16.203,16.203c8.949,0,16.203-7.253,16.203-16.203v-24.304C364.557,311.18,315.858,262.481,256,262.481z" data-original="#000000" class="active-path" data-old_color="#000000" fill="#FFFFFF"/>
	</g>
</g><g>
	<g>
		<path d="M403.443,100.456c-40.204,0-72.911,32.708-72.911,72.911s32.708,72.911,72.911,72.911    c40.209,0,72.911-32.708,72.911-72.911S443.647,100.456,403.443,100.456z M403.443,213.873c-22.338,0-40.506-18.168-40.506-40.506    s18.168-40.506,40.506-40.506s40.506,18.168,40.506,40.506S425.781,213.873,403.443,213.873z" data-original="#000000" class="active-path" data-old_color="#000000" fill="#FFFFFF"/>
	</g>
</g><g>
	<g>
		<path d="M403.443,213.333c-49.65,0-92.975,33.653-105.343,81.844c-2.225,8.663,2.997,17.493,11.66,19.719    c8.668,2.247,17.493-2.992,19.719-11.66c8.695-33.858,39.113-57.497,73.965-57.497c41.992,0,76.152,34.166,76.152,76.152v24.304    c0,8.949,7.253,16.203,16.203,16.203c8.949,0,16.203-7.253,16.202-16.203V321.89C512,262.033,463.301,213.333,403.443,213.333z" data-original="#000000" class="active-path" data-old_color="#000000" fill="#FFFFFF"/>
	</g>
</g><g>
	<g>
		<path d="M108.557,100.456c-40.204,0-72.911,32.708-72.911,72.911s32.708,72.911,72.911,72.911    c40.204,0,72.911-32.708,72.911-72.911S148.761,100.456,108.557,100.456z M108.557,213.873c-22.338,0-40.506-18.168-40.506-40.506    s18.168-40.506,40.506-40.506s40.506,18.168,40.506,40.506S130.895,213.873,108.557,213.873z" data-original="#000000" class="active-path" data-old_color="#000000" fill="#FFFFFF"/>
	</g>
</g><g>
	<g>
		<path d="M213.366,294.638c-12.292-47.873-55.391-81.304-104.809-81.304C48.699,213.333,0,262.033,0,321.89v24.304    c0,8.949,7.253,16.203,16.203,16.203c8.949,0,16.203-7.253,16.203-16.203V321.89c0-41.986,34.16-76.152,76.152-76.152    c34.619,0,64.81,23.418,73.419,56.957c2.225,8.663,11.023,13.869,19.724,11.666C210.368,312.136,215.591,303.301,213.366,294.638z    " data-original="#000000" class="active-path" data-old_color="#000000" fill="#FFFFFF"/>
	</g>
</g></g> </svg>
