<svg id="Layer_1" data-name="Layer 1" xmlns="http://www.w3.org/2000/svg" xmlns:xlink="http://www.w3.org/1999/xlink" viewBox="0 0 375.15 358.14"><defs><linearGradient id="linear-gradient" x1="306.91" y1="173.58" x2="398.79" y2="150.46" gradientUnits="userSpaceOnUse"><stop offset="0" stop-opacity="0"/><stop offset="0.99"/></linearGradient><linearGradient id="linear-gradient-2" x1="337.16" y1="156.9" x2="354.84" y2="156.9" xlink:href="#linear-gradient"/><linearGradient id="linear-gradient-3" x1="-7217.6" y1="6022.6" x2="-7155.8" y2="5997.7" gradientTransform="translate(2177.4 9257.15) rotate(117.67)" gradientUnits="userSpaceOnUse"><stop offset="0.02" stop-color="#fff" stop-opacity="0"/><stop offset="0.32" stop-color="#fff" stop-opacity="0.39"/><stop offset="0.68" stop-color="#fff" stop-opacity="0.68"/><stop offset="1" stop-color="#fff"/></linearGradient><linearGradient id="linear-gradient-4" x1="-7172.78" y1="6000.37" x2="-7136.59" y2="5989.78" xlink:href="#linear-gradient-3"/><linearGradient id="linear-gradient-5" x1="84.42" y1="82.07" x2="120.62" y2="71.49" gradientTransform="translate(102.99 34.44) rotate(1.12)" xlink:href="#linear-gradient-3"/><linearGradient id="linear-gradient-6" x1="322.46" y1="103.18" x2="343.28" y2="103.18" gradientUnits="userSpaceOnUse"><stop offset="0" stop-color="#e5c5d5"/><stop offset="0.42" stop-color="#ead4d1"/><stop offset="1" stop-color="#f0e9cb"/></linearGradient><linearGradient id="linear-gradient-7" x1="306" y1="146.7" x2="327.39" y2="146.7" xlink:href="#linear-gradient"/><linearGradient id="linear-gradient-8" x1="316.34" y1="137.35" x2="337.53" y2="137.35" xlink:href="#linear-gradient-6"/><linearGradient id="linear-gradient-9" x1="189.74" y1="110.98" x2="286.01" y2="264.56" gradientTransform="matrix(1, 0, 0, 1, 0, 0)" xlink:href="#linear-gradient-3"/><linearGradient id="linear-gradient-10" x1="243.37" y1="207.39" x2="264.04" y2="207.39" gradientTransform="matrix(1, 0, 0, 1, 0, 0)" xlink:href="#linear-gradient-3"/><linearGradient id="linear-gradient-11" x1="81.32" y1="311.77" x2="100.98" y2="311.77" xlink:href="#linear-gradient-6"/><linearGradient id="linear-gradient-12" x1="110.18" y1="308.7" x2="131.7" y2="308.7" xlink:href="#linear-gradient-6"/><linearGradient id="linear-gradient-13" x1="122.86" y1="183.24" x2="138.53" y2="183.24" xlink:href="#linear-gradient-6"/><linearGradient id="linear-gradient-14" x1="125.34" y1="165.23" x2="85.67" y2="166.49" xlink:href="#linear-gradient"/><linearGradient id="linear-gradient-15" x1="67.83" y1="160.68" x2="109.76" y2="167.21" xlink:href="#linear-gradient"/><linearGradient id="linear-gradient-16" x1="103.7" y1="178.13" x2="79.87" y2="101.69" xlink:href="#linear-gradient"/><linearGradient id="linear-gradient-17" x1="127.9" y1="145.24" x2="148.21" y2="145.24" xlink:href="#linear-gradient-6"/><linearGradient id="linear-gradient-18" x1="83.89" y1="106.18" x2="106.7" y2="106.18" xlink:href="#linear-gradient-6"/><linearGradient id="linear-gradient-19" x1="267.9" y1="131.38" x2="285.48" y2="131.38" xlink:href="#linear-gradient-6"/><linearGradient id="linear-gradient-20" x1="92.54" y1="109.58" x2="80.11" y2="94.89" xlink:href="#linear-gradient-6"/><linearGradient id="linear-gradient-21" x1="84.92" y1="103.44" x2="94.93" y2="104.63" xlink:href="#linear-gradient"/><linearGradient id="linear-gradient-22" x1="269.44" y1="220.7" x2="269.98" y2="202.28" gradientTransform="matrix(1, 0, 0, 1, 0, 0)" xlink:href="#linear-gradient-3"/><linearGradient id="linear-gradient-23" x1="178.4" y1="227.36" x2="280.79" y2="227.36" xlink:href="#linear-gradient"/></defs><title>Team Presentation 2</title><path d="M142.84,26.34c-26.54,23-38.16,59.33-63.57,83.57-12.93,12.34-29.54,21.73-37.69,37.64-4.63,9-6,19.4-6.46,29.55C33.71,210,41.69,242.54,49.9,274.46c4.28,16.65,8.9,33.82,19.6,47.28C81.22,336.46,99,345.1,116.9,350.86c52.31,16.83,109.39,12.75,162.76-.35,29.14-7.16,58.12-17.19,82.36-34.88s43.41-43.94,47.31-73.69c4.72-36-12.81-70.8-29.81-102.9L345.86,75.49c-20.32-38.36-45.07-71-92.33-71.27C215.53,4,173.68-.39,142.84,26.34Z" transform="translate(-34.96 -3.83)" fill="#5a3ff3" opacity="0.18" style="isolation:isolate"/><rect x="228.45" y="228.85" width="7.45" height="77.36" fill="#5a3ff3"/><path d="M319.33,91c.21,1.5.27,3,.34,4.51a5.56,5.56,0,0,1-1.27,4.21,20.29,20.29,0,0,1-2.4,1.64,6.33,6.33,0,0,0-2.41,5.25,8.57,8.57,0,0,0,2.3,5.41c1.87,2.07,4.87,3.35,7.53,2.5,1.26-.4,2.54-1.24,3.78-.8,1.74.61,1.78,3.06,2.89,4.53.92,1.21,2.52,1.66,4,2,3.17.73,6.38,1.31,9.6,1.73a2.73,2.73,0,0,1,1.26.38,2.81,2.81,0,0,1,.77,1.08,15.56,15.56,0,0,0,3.76,5.25,6.72,6.72,0,0,0,6,1.52c2.08-.64,3.65-2.94,3.05-5a7.31,7.31,0,0,0,9.11.44,6.44,6.44,0,0,0,1-8.83c-1.5-1.75-3.88-2.46-6.17-2.74a47.6,47.6,0,0,1-6.85-.81c-2.22-.61-4.4-2.07-5-4.28-.83-3,1.32-5.84,2.76-8.56a20.57,20.57,0,0,0,.4-18.09A7.33,7.33,0,0,0,352,79.76c-1.48-1.23-3.52-1.39-5.41-1.74-4-.75-7.78-2.59-11.81-3.3C334.75,74.72,316.9,73.29,319.33,91Z" transform="translate(-34.96 -3.83)" fill="#3e3e54"/><path d="M305.49,245.94a502.41,502.41,0,0,1,6.13-61.19,178.53,178.53,0,0,0,32.28.69c.1,3.4,2.44,7.79,2.54,11.18,1,34.08,2,68.34-2.29,102.17a3.38,3.38,0,0,1-.41,1.43c-.74,1.14-2.63.9-3.53-.12a6.75,6.75,0,0,1-1.27-3.82c-.58-5-6.93-36-7-43.67-.15-15-2-34.24-5.06-27-1.25,3-7.73,15.5-8.23,18.69-1.43,9.3,3.45,18.22,6.93,27,3.09,7.76,5.16,15.87,7.21,24a8.7,8.7,0,0,1-4.46.88C318.08,280.68,304.78,264.41,305.49,245.94Z" transform="translate(-34.96 -3.83)" fill="#3e3e54"/><path d="M319.87,123.89a17.47,17.47,0,0,0-2,6.06c-3.48,18.72-3.39,37.89-3.29,56.93,0,2.15.11,4.53,1.62,6.05,1.26,1.28,3.18,1.6,5,1.77a56.61,56.61,0,0,0,12.48-.18,11.76,11.76,0,0,0,5.37-1.67c2.69-1.88,3.56-5.42,4.11-8.66,2.34-13.85,2.31-28,1.78-41.95-.34-8.78,1.89-23.17-10.06-23.87C329.54,118.06,322.93,118.9,319.87,123.89Z" transform="translate(-34.96 -3.83)" fill="#fff"/><path d="M331.79,195.23l2.29-44.69s-2.86-1.72-3.44-3.06-5-1.15-5-1.15l1.63-6.51,9.64,5.37,3.82,7.26-1.72,40.4S333.89,196.57,331.79,195.23Z" transform="translate(-34.96 -3.83)" fill="url(#linear-gradient)"/><path d="M357.22,204.55a3.23,3.23,0,0,1,.38,1.86,3,3,0,0,1-1.18,1.56c-7,5.64-16.68,6-25.65,6.12,9.92-31.05,2.37-60.92,7.58-93.1,4.65.41,7.5,1.32,9.32,5.62,2.32,5.49,4.65,11,5.81,16.86,2,10.35-2.91,19-2.81,29.27A84.37,84.37,0,0,0,357.22,204.55Z" transform="translate(-34.96 -3.83)" fill="#5a3ff3"/><path d="M337.16,151s1.12,5.37,3.67,7.67,9.42,7.38,9.42,7.38l4.59-12.73-5.1-5.61Z" transform="translate(-34.96 -3.83)" fill="url(#linear-gradient-2)"/><rect x="119.9" y="77.33" width="110.7" height="131.58" fill="#5a3ff3" opacity="0.48" style="isolation:isolate"/><rect x="119.9" y="77.33" width="110.7" height="131.58" fill="#5a3ff3" opacity="0.48" style="isolation:isolate"/><path d="M168.09,136a26.61,26.61,0,1,1,45.34-2.93l-.08.16L189.79,120.9Z" transform="translate(-34.96 -3.83)" fill="url(#linear-gradient-3)"/><path d="M177.52,144.3a26.57,26.57,0,0,1-9.43-8.27l21.7-15.13,23.56,12.36A26.61,26.61,0,0,1,177.52,144.3Z" transform="translate(-34.96 -3.83)" fill="url(#linear-gradient-4)"/><path d="M216.47,121.26a26.62,26.62,0,0,1-3.19,12.13l-23.23-12.65.52-26.59A26.6,26.6,0,0,1,216.47,121.26Z" transform="translate(-34.96 -3.83)" fill="url(#linear-gradient-5)"/><rect x="114.66" y="67.32" width="121.26" height="12.33" rx="6.17" fill="#fff"/><rect x="146.41" y="297.16" width="55.86" height="10.51" rx="5.26" fill="#5a3ff3"/><rect x="203.69" y="223.03" width="77.1" height="8.49" fill="#5a3ff3"/><path d="M322.48,102.43c.13,3.37,1.24,6.93,3.9,9a8.25,8.25,0,0,0,6,1.66,1.67,1.67,0,0,1,.86,0c.58.23.66,1,.64,1.64l-.13,4.55a.95.95,0,0,0,1.08,1.21c2.13.14,4.74,0,5.75-1.84a5.71,5.71,0,0,0,.5-1.83l1.24-8a56.74,56.74,0,0,0,.92-9A18,18,0,0,0,341.7,92,10.48,10.48,0,0,0,336,86.54a17.1,17.1,0,0,0-5-.71c-2.79-.12-6.95-.2-7.58,3.24-.38,2.1-.24,4.38-.47,6.51A44.8,44.8,0,0,0,322.48,102.43Z" transform="translate(-34.96 -3.83)" fill="url(#linear-gradient-6)"/><path d="M346,98.28a2.57,2.57,0,0,1-.77,1.47,2.07,2.07,0,0,1-2.25,0,13.92,13.92,0,0,1-1.83-1.52,7,7,0,0,0-3.38-1.52,8.88,8.88,0,0,1-2.58-.5c-.79-.4-1.36-1.43-.88-2.17.24,1-.72,1.89-1.7,2a6.47,6.47,0,0,1-2.91-.57,21,21,0,0,1-4.85-1.92c-1.47-1-2.63-2.65-2.3-4.36.35-1.9,2.27-3,4-3.87a22.12,22.12,0,0,1,5.41-2C340.38,81.74,348.05,90,346,98.28Z" transform="translate(-34.96 -3.83)" fill="#3e3e54"/><path d="M349.85,121.37a21.12,21.12,0,0,1,6.09,8.18,62.76,62.76,0,0,1,3.15,9.79l1.34,5.14a25.18,25.18,0,0,1,1.21,8,8.59,8.59,0,0,1-3.65,6.87c-3,1.81-6.82.91-10-.52A34.28,34.28,0,0,1,337.16,151a12,12,0,0,1-2.3-3.18,7.52,7.52,0,0,1,.79-7.45,1,1,0,0,1,1.51-.36,96.64,96.64,0,0,1,10.23,4.31,26.07,26.07,0,0,0-3.58-7.37c-2.76-4.56-5.29-9.47-5.63-14.79-.15-2.34,2.1-3.93,5-3.23C345.92,119.62,347.64,119.67,349.85,121.37Z" transform="translate(-34.96 -3.83)" fill="#5a3ff3"/><path d="M333.72,118.25c-5.74-.52-11.2.27-15.58,4A32.79,32.79,0,0,0,310.41,133c-2,4-3.48,8.18-5.43,12.18l-16.66-12.87a3.5,3.5,0,0,0-1.93-.93c-1.37-.06-2.27,1.37-2.86,2.61a4.11,4.11,0,0,0,.56,5.82,101.21,101.21,0,0,0,15.93,14,16.25,16.25,0,0,0,6.11,3,11.72,11.72,0,0,0,7.13-1.18,32.39,32.39,0,0,0,6.07-4.14c3-2.44,6-5,8.05-8.27,3.52-5.53-3.4-14.6,6.34-25" transform="translate(-34.96 -3.83)" fill="#5a3ff3"/><path d="M313.68,140.26a366.21,366.21,0,0,1-17.32,59.66,31.28,31.28,0,0,0,19.41,9.7c-.49-8.31.34-16.65,1.17-24.94,1.78-17.89,6.16-25.45,10.36-42.26-5.23,3.41-14.23-2.73-16.09,3.23" transform="translate(-34.96 -3.83)" fill="#5a3ff3"/><path d="M306.44,155.54c-.23.12-.53.33-.42.58a.52.52,0,0,0,.18.18,3.64,3.64,0,0,0,4.12-.36,7.06,7.06,0,0,0,2.23-3.73,2.41,2.41,0,0,1,.5-1.1,2.29,2.29,0,0,1,2-.35l7.35,1a1.55,1.55,0,0,0,1.43-.29,1.68,1.68,0,0,0,.25-1.06,13,13,0,0,1,1.92-6.67c.74-1.2,1.72-2.51,1.35-3.87a3.64,3.64,0,0,0-1.43-1.84,5.91,5.91,0,0,0-3.21-1.36c-2.22-.11-4.06,1.61-5.53,3.27a57.16,57.16,0,0,0-6.51,8.66C309.15,151.09,309.51,154,306.44,155.54Z" transform="translate(-34.96 -3.83)" fill="url(#linear-gradient-7)"/><path d="M325.41,119.57a2.21,2.21,0,0,0-.38-1.19,2.13,2.13,0,0,0-1-.53,53.13,53.13,0,0,0-13.35-2.29,1.23,1.23,0,0,0-.69.11,1.21,1.21,0,0,0-.43.84A96.16,96.16,0,0,0,308.18,147c.13,1.11.36,2.35,1.29,2.95a3.79,3.79,0,0,0,1.54.47l12.72,2a105.47,105.47,0,0,1,.43-16.29c.33-2.8,1.15-5.5,1.37-8.34A46.79,46.79,0,0,0,325.41,119.57Z" transform="translate(-34.96 -3.83)" fill="#fff"/><path d="M333.74,300a17,17,0,0,1,1,6.78l-3.34.15a5.31,5.31,0,0,0-1.75-3.73c-1.26,2.25-2.62,4.61-4.86,5.88a12.32,12.32,0,0,1-6,1.19,46.82,46.82,0,0,1-7.09-.54c-.4-.06-.9-.25-.88-.66a.76.76,0,0,1,.18-.41c3.37-4.83,9.66-6.52,14.31-10.13a17.35,17.35,0,0,1,2.34-1.69c.73-.38,4.19-1.7,4.92-1.14C333,296,333.48,299.24,333.74,300Z" transform="translate(-34.96 -3.83)" fill="#3e3e54"/><path d="M345.91,304.05l1.41,3.79c.67,1.81,1.35,3.83.62,5.62a5,5,0,0,1-5,2.76,7,7,0,0,1-6.15-5.72,14.05,14.05,0,0,1,.15-4l1.14-8.42a1.19,1.19,0,0,1,.22-.66c.3-.35.86-.26,1.31-.13,1.51.41,4.22.58,5.16,2C345.56,300.42,345.39,302.69,345.91,304.05Z" transform="translate(-34.96 -3.83)" fill="#3e3e54"/><path d="M331,134.17a9.7,9.7,0,0,0-1.25-1.39c-1.28-1.11-2.92-2.67-4.58-3,0,0,0,3.08-.67,2.87-1.15-.38-6.53-.32-7.43.49a2.5,2.5,0,0,0-.71,1.93,5.87,5.87,0,0,0,2.74,4.54,17.16,17.16,0,0,0,5.08,2.1l10.3,3a3.63,3.63,0,0,0,1.08.21,2,2,0,0,0,1.93-1.43c.45-1.57-1.59-3.14-2.46-4.24Z" transform="translate(-34.96 -3.83)" fill="url(#linear-gradient-8)"/><path d="M287.42,199.42c.71,3.22,1.31,6.59.53,9.79-2,8-11.53,11.52-19.72,11.21-7.66-.3-15-2.8-22.21-5.48a404.12,404.12,0,0,1-94.09-50.14c-1.17-.84-2.43-1.82-2.7-3.24-.39-2,1.29-3.71,2.83-5a355.05,355.05,0,0,1,61.37-41.93c17.16-9.25,47.16-20.49,52.93,6.16S281.6,172.87,287.42,199.42Z" transform="translate(-34.96 -3.83)" fill="url(#linear-gradient-9)"/><path d="M260.79,197.85c-4.63-3.77-12.5-2.34-15.52,2.82a14.46,14.46,0,0,0-1.67,5.05c-.53,3.41-.22,7.15,1.89,9.87,2.65,3.43,7.84,4.38,11.77,2.54a12.47,12.47,0,0,0,6.75-10.4,16.94,16.94,0,0,0-4.3-11.93" transform="translate(-34.96 -3.83)" fill="#5a3ff3"/><path d="M260.79,197.85c-4.63-3.77-12.5-2.34-15.52,2.82a14.46,14.46,0,0,0-1.67,5.05c-.53,3.41-.22,7.15,1.89,9.87,2.65,3.43,7.84,4.38,11.77,2.54a12.47,12.47,0,0,0,6.75-10.4,16.94,16.94,0,0,0-4.3-11.93" transform="translate(-34.96 -3.83)" fill="url(#linear-gradient-10)"/><path d="M217.73,111a267.48,267.48,0,0,0,36.36,1" transform="translate(-34.96 -3.83)" fill="none" stroke="#fff" stroke-linecap="round" stroke-miterlimit="10" stroke-width="2.15"/><path d="M218.7,119.52c8.75-.36,17.52-.29,26.26.22.38,0,.9.2.84.58" transform="translate(-34.96 -3.83)" fill="none" stroke="#fff" stroke-linecap="round" stroke-miterlimit="10" stroke-width="2.15"/><path d="M220.31,130.06a19.51,19.51,0,0,1,6.37.25,226.78,226.78,0,0,0,26.41,2.18" transform="translate(-34.96 -3.83)" fill="none" stroke="#fff" stroke-linecap="round" stroke-miterlimit="10" stroke-width="2.15"/><path d="M170.8,164.43c1.65-1.49,4.1-1.58,6.33-1.58q33.13,0,66.32,1.15" transform="translate(-34.96 -3.83)" fill="none" stroke="#fff" stroke-linecap="round" stroke-miterlimit="10" stroke-width="2.15"/><path d="M172.48,181.05c2-2.69,5.93-4.58,8.67-2.64.69.49,1.23,1.17,1.93,1.66a4.13,4.13,0,0,0,2.62.71c1.71-.12,3.18-1.28,4.85-1.67s4,.67,3.62,2.35a10.46,10.46,0,0,1,5.23-2.19,1.25,1.25,0,0,0,.26,1.84,3.44,3.44,0,0,0,2,.5,70.06,70.06,0,0,0,16.41-1.37" transform="translate(-34.96 -3.83)" fill="none" stroke="#fff" stroke-linecap="round" stroke-miterlimit="10" stroke-width="2.15"/><path d="M176.1,194.79c4.82-1.45,9.88-2.91,14.8-1.89,2,.41,3.9,1.21,5.91,1.24,2.77.05,5.51-1.36,8.22-.81a27.3,27.3,0,0,0,3.6.95c3.11.17,5.74-3.16,8.8-2.59,1.16.22,2.16,1,3.33,1.18,1.48.25,2.94-.45,4.32-1.05a33.58,33.58,0,0,1,8.33-2.36,3.3,3.3,0,0,1,1.74.08c.84.35,1.25,1.29,1.88,2,1.61,1.71,4.33,1.45,6.64,1.06L254,190.82" transform="translate(-34.96 -3.83)" fill="none" stroke="#fff" stroke-linecap="round" stroke-miterlimit="10" stroke-width="2.15"/><path d="M81.34,316.47a10.76,10.76,0,0,0,.31,3.49.94.94,0,0,0,.94.8,70.14,70.14,0,0,0,17.12.8,1.94,1.94,0,0,0,1-.26.65.65,0,0,0,.18-.89.89.89,0,0,0-.33-.21,73.69,73.69,0,0,0-6.86-2.74c-1.92-.66-4-1.35-5.11-3a7.27,7.27,0,0,1-.92-3.87c0-2.37.33-4.73.42-7.09,0-.57,0-1.26-.53-1.54a1.54,1.54,0,0,0-1-.09c-1,.16-2.92.34-3.73,1.06s-.7,2.64-.82,3.71C81.63,309.87,81.41,313.17,81.34,316.47Z" transform="translate(-34.96 -3.83)" fill="url(#linear-gradient-11)"/><path d="M110.18,318.34a93.9,93.9,0,0,0,21.52-.54c0-.75-.7-1.3-1.37-1.66-2.69-1.48-5.85-1.88-8.68-3.08a4.86,4.86,0,0,1-2-1.33,5.77,5.77,0,0,1-.88-3.23l-.56-8.35a1.77,1.77,0,0,0-.35-1.13,1.61,1.61,0,0,0-1.29-.33c-1.31.06-4.21.3-5.12,1.38s-.46,3.94-.54,5.23Z" transform="translate(-34.96 -3.83)" fill="url(#linear-gradient-12)"/><path d="M79.81,225.47c3,26.48,2.22,53.23.57,79.82a36,36,0,0,0,7.18.45,3,3,0,0,0,1.76-.46,3.06,3.06,0,0,0,.81-2.25l6.57-84.89a243.75,243.75,0,0,1,11.89,85.65,19,19,0,0,0,10-1.22c4.24-29.62-.76-59.69-5.75-89.19l-3.67-21.69c.18,1.06-18.62-.54-20.17-.69-4.21-.42-13.48-2.21-16.44,1.91-2.46,3.45.68,9.19,2.09,12.43A67.28,67.28,0,0,1,79.81,225.47Z" transform="translate(-34.96 -3.83)" fill="#3e3e54"/><path d="M126.56,186.07a6.7,6.7,0,0,0,5.46,3,17.63,17.63,0,0,0,5.42-.33,1.53,1.53,0,0,0,.94-.48c.43-.6-.16-1.4-.75-1.84a10.74,10.74,0,0,0-2-1.19,4.13,4.13,0,0,1-1.12-.64,1.09,1.09,0,0,1-.31-1.18c.49-.1,1,0,1.48-.15s1-.56.86-1.05-.68-.68-1.17-.78c-2.86-.57-6-.86-8.14-2.84-.85-.78-1.66-1.56-2.9-1.07a2.29,2.29,0,0,0-1.45,2.28c.09.95,1,1.86,1.44,2.64A33.44,33.44,0,0,0,126.56,186.07Z" transform="translate(-34.96 -3.83)" fill="url(#linear-gradient-13)"/><path d="M110.14,148c.22-.11-.13-.45-.32-.29s-.12.46,0,.7l2,6.47a16.84,16.84,0,0,0,1.1,2.92,17.65,17.65,0,0,0,2.57,3.35c4.61,5.12,8.87,10.54,13.12,16a1.34,1.34,0,0,1,.39.92,1.37,1.37,0,0,1-.5.74l-4.29,3.93a1.41,1.41,0,0,1-2.14.23l-12.6-8a20,20,0,0,1-5-4,11.5,11.5,0,0,1-1.71-10.53,16,16,0,0,1,6.87-8.46" transform="translate(-34.96 -3.83)" fill="#5a3ff3"/><path d="M110.14,148c.22-.11-.13-.45-.32-.29s-.12.46,0,.7l2,6.47a16.84,16.84,0,0,0,1.1,2.92,17.65,17.65,0,0,0,2.57,3.35c4.61,5.12,8.87,10.54,13.12,16a1.34,1.34,0,0,1,.39.92,1.37,1.37,0,0,1-.5.74l-4.29,3.93a1.41,1.41,0,0,1-2.14.23l-12.6-8a20,20,0,0,1-5-4,11.5,11.5,0,0,1-1.71-10.53,16,16,0,0,1,6.87-8.46" transform="translate(-34.96 -3.83)" fill="url(#linear-gradient-14)"/><path d="M74.42,90.18a3.5,3.5,0,0,0-2.1.83,4.24,4.24,0,0,0-.85,3.17,1.71,1.71,0,0,0,.11.71,1.41,1.41,0,0,0,.72.66,5.81,5.81,0,0,0,5.52-.34A2.34,2.34,0,0,0,79,93.93a2.71,2.71,0,0,0-.29-1.64l-.39-1C77.73,89.88,75.76,90,74.42,90.18Z" transform="translate(-34.96 -3.83)" fill="#5a3ff3"/><path d="M73.79,90.13a6.09,6.09,0,0,0-1.88-3.81A7.32,7.32,0,0,0,69.37,85a4.6,4.6,0,0,0-2.31-.3,4.18,4.18,0,0,0-2.28,1.61,11,11,0,0,0-2.41,7.74c.12,1.39.5,2.75.7,4.13a31.17,31.17,0,0,1-.52,9.48,6.42,6.42,0,0,0,2.64-1.6l-.35,2.64,1.8-.57c-.41.45,0,1.26.62,1.39a2.12,2.12,0,0,0,1.68-.58,11.36,11.36,0,0,0,1.87-2,12.29,12.29,0,0,0,1.92-3.35c.75-2.28.29-4.71.41-7S74.11,92.44,73.79,90.13Z" transform="translate(-34.96 -3.83)" fill="#b7a451"/><path d="M113.17,190.33a2.62,2.62,0,0,1-1.77,2.85c-7.68,4.2-16.85,4.46-25.61,4.22-6.33-.18-13-.64-18.36-3.87l-.37-.22c2.92-6.39,4.47-13.31,6-20.15,1.95-8.78,7.08-16.4,4.13-24.88q-2.57-7.4-5.15-14.79a16.12,16.12,0,0,1-1.22-5.76l.07-.79a11.09,11.09,0,0,1,1.93-4.41,7,7,0,0,1,3.28-3,8.23,8.23,0,0,1,2.31-.34c2.85-.13,5.69-.26,8.54-.37,6-.26,12.23.18,16.36,4.5,2.84,3,3.91,7.14,4.9,11.13a65.47,65.47,0,0,1,2,11.22,24.78,24.78,0,0,1-.4,6.71c-.62,3-1.9,5.8-2.64,8.73a16.94,16.94,0,0,0-.49,2.65C105.77,172.92,113.16,181.15,113.17,190.33Z" transform="translate(-34.96 -3.83)" fill="#5a3ff3"/><path d="M82.65,157.11c0,4-7.53,38.92-7.53,38.92l-7.69-2.5-.37-.22c2.92-6.39,4.47-13.31,6-20.15,1.95-8.78,7.08-16.4,4.13-24.88q-2.57-7.4-5.15-14.79a16.12,16.12,0,0,1-1.22-5.76l.07-.79,9.39,18S82.65,153.1,82.65,157.11Z" transform="translate(-34.96 -3.83)" fill="url(#linear-gradient-15)"/><path d="M109.84,152.4c-.62,3-1.9,5.8-2.64,8.73-5.81.08-13-.18-15.84-1.75-2.16-1.18-23-22-17.89-34.17,1.52-3.58,6.84-4.42,10.36-2.78,1.71.8,10,19.92,12.43,22,1.55,1.35,7.47,1.48,14,1.23A24.78,24.78,0,0,1,109.84,152.4Z" transform="translate(-34.96 -3.83)" fill="url(#linear-gradient-16)"/><path d="M135,143.28c1.39-1.53,2.61-3.78,4.4-3.88a.58.58,0,0,1,.56.2c.34.44,0,1.18-.12,1.81a1.9,1.9,0,0,0,1.29,2,4.26,4.26,0,0,0,2.18-.31,7.86,7.86,0,0,1,4.86.28,7.09,7.09,0,0,1-3.34,6.74c-2,1.12-4.23,1-6.39.83l-7.17-.51c-1.44-.1-4.89-2-2.61-4.26.71-.71,2-.44,2.86-.69A7.81,7.81,0,0,0,135,143.28Z" transform="translate(-34.96 -3.83)" fill="url(#linear-gradient-17)"/><path d="M91.78,315.38a3.64,3.64,0,0,1,1.44.36,48.55,48.55,0,0,1,8.54,4.47c.72.47,1.52,1.33,1,2.06a1.68,1.68,0,0,1-1.42.53,83.09,83.09,0,0,1-18.23-1.26c-1.62-.31-3.65-.92-2.79-2.93A4.94,4.94,0,0,1,84.2,316c1.31-.11,2.43.73,3.74.68S90.39,315.4,91.78,315.38Z" transform="translate(-34.96 -3.83)" fill="#3e3e54"/><path d="M120.51,314.41a8.63,8.63,0,0,1-3.34-.94A14.19,14.19,0,0,0,111,312a1.64,1.64,0,0,0-1.36.59,1.75,1.75,0,0,0-.22.81l-.34,3.24a2.56,2.56,0,0,0,.05,1.2c.32.88,1.39,1.18,2.31,1.33a95.92,95.92,0,0,0,17.5,1.37c1.78,0,3.83-.23,4.84-1.7a1,1,0,0,0,.2-.5c0-.35-.29-.63-.57-.86a30.21,30.21,0,0,0-6.83-4.06c-1-.41-2.12-1.12-3.12-.6S122,314.41,120.51,314.41Z" transform="translate(-34.96 -3.83)" fill="#3e3e54"/><path d="M89.35,154c4.25,2.31,18.93.78,23.76.5s14.81-3,15.17-3.43.08-3.32.14-3.74a21,21,0,0,0,.15-4.69c-6.23,0-29.72,2.72-33-.19-2.39-2.11-10.72-21.23-12.43-22-3.52-1.64-8.85-.81-10.36,2.77C67.58,135.44,87.19,152.85,89.35,154Z" transform="translate(-34.96 -3.83)" fill="#5a3ff3"/><path d="M106.1,104.07a4.89,4.89,0,0,1,.56,1.15c.24,1.09-.66,2-1.21,3-1.13,2-1,4.74-2.82,6.11a5.16,5.16,0,0,1-3.86.68,33.35,33.35,0,0,0-4-.65,1,1,0,0,0-.56.11,1,1,0,0,0-.26.87c.05,1.64.29,2.17.34,3.81,0,0,1.46,4.69-3.23,4.69-3,0-7.52-4.81-7.19-5,1.25-.67,1-4.59.77-7.22a55.9,55.9,0,0,1-.32-9.59A10.5,10.5,0,0,1,86,96.74c.76-1.07,1.82-1.88,2.67-2.88a27.16,27.16,0,0,1,2.86-3.54,9.51,9.51,0,0,1,5.43-1.74,8.06,8.06,0,0,1,5.09.85C107,92.67,103.78,99.81,106.1,104.07Z" transform="translate(-34.96 -3.83)" fill="url(#linear-gradient-18)"/><path d="M96.93,89A6.68,6.68,0,0,0,98,92a15.53,15.53,0,0,0,2.64,3.76,8.34,8.34,0,0,0,8.75,1.69A.94.94,0,0,0,110,97a1.11,1.11,0,0,0,0-.6q-.9-4.12-1.92-8.24a3,3,0,0,0-.5-1.24,3.18,3.18,0,0,0-1.28-.84,15,15,0,0,0-3.77-1.28C99.58,84.33,96.84,85.86,96.93,89Z" transform="translate(-34.96 -3.83)" fill="#c9b148"/><path d="M102.8,89.9a7.78,7.78,0,0,0-3.11-8.23c-2.66-1.78-6.14-1.7-9.3-1.21a21.44,21.44,0,0,0-7.49,2.36A14.13,14.13,0,0,0,78,102.66c1.63,2.57,3.52,5,5.22,7.59.22.32.59.7.94.52a.85.85,0,0,0,.33-.45,7.86,7.86,0,0,1,2.36-3.38c.87-.62,1.93-.92,2.81-1.52a4.09,4.09,0,0,0,2-2.78c.12-1.38.11-2.79.16-4.18A9.22,9.22,0,0,1,92.17,96c.73-2.27,3.09-3.59,5.35-4.39s4.71-1.38,6.44-3" transform="translate(-34.96 -3.83)" fill="#c9b148"/><path d="M280.37,126.38a1.59,1.59,0,0,0-1.7.67,5,5,0,0,1-.32.7,1.65,1.65,0,0,1-1.41.46h-5.12c-1.26,0-2.7.09-3.47,1.09a2.74,2.74,0,0,0,.18,3.23,6.19,6.19,0,0,0,2.87,1.89,18.73,18.73,0,0,0,6.1,1.24c2.67.08,7.31,2.34,7.93-1.39C285.88,131.58,283.1,126.93,280.37,126.38Z" transform="translate(-34.96 -3.83)" fill="url(#linear-gradient-19)"/><path d="M88.31,99.44a3,3,0,0,0-3.3,0,2.9,2.9,0,0,0-.82,1.08A5.16,5.16,0,0,0,84,104a8.57,8.57,0,0,0,1.72,3.16,2.31,2.31,0,0,0,.72.64,1.9,1.9,0,0,0,1.62-.16c1-.53,2.63-.09,3-1.16.35-.91-.09-3.84-.48-4.77A6.21,6.21,0,0,0,88.31,99.44Z" transform="translate(-34.96 -3.83)" fill="url(#linear-gradient-20)"/><path d="M88.13,103.45c-.11-.47.09-1-.08-1.43a1.75,1.75,0,0,0-.34-.51,1.09,1.09,0,0,0-.82-.46.94.94,0,0,0-.68.58,4.83,4.83,0,0,0-.31,2.3,2.78,2.78,0,0,0,.12.91,2.86,2.86,0,0,0,1.32,1.32,1.38,1.38,0,0,0,.71.29,1,1,0,0,0,.43-.12,1.53,1.53,0,0,0,.78-1.54C89.07,104.23,88.29,104.13,88.13,103.45Z" transform="translate(-34.96 -3.83)" fill="url(#linear-gradient-21)"/><rect x="171.39" y="206.8" width="4.6" height="92.33" fill="#5a3ff3"/><path d="M301.09,218.9a13.22,13.22,0,0,1-1.26,5.7,8.88,8.88,0,0,1-1.65,2.26H241.71c-1.89-1.11-3.11-3.27-3.36-7.35-.19-2.87.72-9.4,2.36-11.73,3.16-4.47,7.45-3.58,13.33-3.89q16-.81,32-.77c2.71,0,5.52.07,8,1.19C299.22,206.69,301.31,213.17,301.09,218.9Z" transform="translate(-34.96 -3.83)" fill="#5a3ff3"/><path d="M286,203.12a35.82,35.82,0,0,1,8,.63c5.23,1.26,7.33,4.69,7.12,7.73a4.59,4.59,0,0,1-1.26,3c-2.58,2.64-9.1,3.34-14.71,3.27-10.45-.12-20.63-1.75-31.12-1.64-8.31.09-15,1.12-15.66-4.33-.19-1.52.72-5,2.36-6.21,3.16-2.37,7.45-1.9,13.33-2.06Q270,203.1,286,203.12Z" transform="translate(-34.96 -3.83)" fill="url(#linear-gradient-22)"/><rect x="178.4" y="223.2" width="102.39" height="8.32" fill="url(#linear-gradient-23)"/><rect x="219.85" y="302.2" width="24.64" height="5.16" rx="2.58" fill="#5a3ff3"/></svg>