<svg id="Layer_1" data-name="Layer 1" xmlns="http://www.w3.org/2000/svg" xmlns:xlink="http://www.w3.org/1999/xlink" viewBox="0 0 384.76 356.3"><defs><linearGradient id="linear-gradient" x1="211.33" y1="-83.58" x2="194.22" y2="383.46" gradientUnits="userSpaceOnUse"><stop offset="0.02" stop-color="#fff" stop-opacity="0"/><stop offset="0.32" stop-color="#fff" stop-opacity="0.39"/><stop offset="0.68" stop-color="#fff" stop-opacity="0.68"/><stop offset="1" stop-color="#fff"/></linearGradient><linearGradient id="linear-gradient-2" x1="155.94" y1="136.74" x2="262.31" y2="93.9" xlink:href="#linear-gradient"/><linearGradient id="linear-gradient-3" x1="233.08" y1="98.48" x2="295.38" y2="80.26" xlink:href="#linear-gradient"/><linearGradient id="linear-gradient-4" x1="354.95" y1="74.03" x2="380.5" y2="74.03" gradientUnits="userSpaceOnUse"><stop offset="0" stop-color="#e5c5d5"/><stop offset="0.42" stop-color="#ead4d1"/><stop offset="1" stop-color="#f0e9cb"/></linearGradient><linearGradient id="linear-gradient-5" x1="362.09" y1="167.6" x2="385.66" y2="167.6" xlink:href="#linear-gradient-4"/><linearGradient id="linear-gradient-6" x1="278.21" y1="112.62" x2="298.09" y2="112.62" xlink:href="#linear-gradient-4"/><linearGradient id="linear-gradient-7" x1="91.22" y1="313.72" x2="112.41" y2="313.72" xlink:href="#linear-gradient-4"/><linearGradient id="linear-gradient-8" x1="122.33" y1="310.41" x2="145.53" y2="310.41" xlink:href="#linear-gradient-4"/><linearGradient id="linear-gradient-9" x1="94.38" y1="90.43" x2="118.57" y2="90.43" xlink:href="#linear-gradient-4"/><linearGradient id="linear-gradient-10" x1="142.25" y1="133.47" x2="164.15" y2="133.47" xlink:href="#linear-gradient-4"/><linearGradient id="linear-gradient-11" x1="136" y1="175.13" x2="152.9" y2="175.13" xlink:href="#linear-gradient-4"/><linearGradient id="linear-gradient-12" x1="209.01" y1="147.77" x2="208.05" y2="173.92" xlink:href="#linear-gradient"/><linearGradient id="linear-gradient-13" x1="209.01" y1="169.27" x2="208.05" y2="195.42" xlink:href="#linear-gradient"/><linearGradient id="linear-gradient-14" x1="209.01" y1="190.76" x2="208.05" y2="216.91" xlink:href="#linear-gradient"/></defs><title>Team Presentation 3</title><path d="M296.23,362.7c22.53-1,45.42-2.42,66.65-10.05s40.93-22.41,49.33-43.34c18.8-46.84-24.33-98.07-16.82-148,4-26.71,22.42-50.67,21.39-77.66C415.64,53.5,389.9,29.24,361.9,17.92c-40.29-16.28-88.32-11.87-125,11.48-30.5,19.42-52.13,50.05-80.71,72.19-35.1,27.19-81.3,42.35-105.46,79.6C27.33,217.31,21,317.06,62.63,344.44c27,17.76,75.62,16.4,106.64,18.37C211.54,365.5,254,364.62,296.23,362.7Z" transform="translate(-32.24 -8.21)" fill="#00b8d9" opacity="0.18" style="isolation:isolate"/><rect x="135.84" y="227.96" width="6.84" height="88.46" fill="#3e3e54"/><rect x="265.79" y="227.96" width="6.84" height="88.46" fill="#3e3e54"/><path d="M397.12,269.44c.66-33.23,1.31-66.61-2.92-99.57-14.6-.18-29.89-.12-44.49-.3-4.3,11.15-6.18,23.06-8,34.87-1.44,9.45-2.84,19-2.47,28.52.43,11.17,3.28,22.11,4.36,33.24,1.29,13.22.08,26.65,2.17,39.78.25,1.61.62,3.34,1.83,4.45,1.62,1.47,4.09,1.3,6.26,1a4.28,4.28,0,0,0,1.94-.55c1.17-.79,1.28-2.43,1.28-3.84q-.17-33.37-2.05-66.7a20.31,20.31,0,0,1,.35-6.7,20,20,0,0,1,2.05-4.37l14.29-25.13c1.88,11.47,4.58,22.45,6.46,33.92.87,5.37,5.44,71.28,5.5,76.49,2.16,1.63,10.56,3,12.5,1.1S396.85,282.63,397.12,269.44Z" transform="translate(-32.24 -8.21)" fill="#3e3e54"/><rect x="118.5" y="18.13" width="170.25" height="217.37" fill="#00b8d9"/><rect x="118.5" y="18.13" width="170.25" height="217.37" fill="url(#linear-gradient)"/><path d="M280.89,123.79A45.79,45.79,0,1,1,240.18,57h.32v45.79Z" transform="translate(-32.24 -8.21)" fill="url(#linear-gradient-2)"/><path d="M286,102.81a45.65,45.65,0,0,1-5.07,21l-40.39-21V57A45.78,45.78,0,0,1,286,102.81Z" transform="translate(-32.24 -8.21)" fill="url(#linear-gradient-3)"/><path d="M355.77,70.69a4.5,4.5,0,0,0-.74,3.06c.36,1.29,1.83,1.9,2.62,3s.81,2.79,1.56,4c1.32,2.21,4.45,2.38,7,2,.87-.13,2-.17,2.38.61a2,2,0,0,1,.15.91q.06,4,.46,8.07a1.88,1.88,0,0,0,.4,1.19,1.7,1.7,0,0,0,1.14.39c4,.19,7.43-3.25,8.72-7s1-7.92,1-11.93c0-2.71.15-5.46-.59-8.06a18.35,18.35,0,0,0-2.68-5.34,18.74,18.74,0,0,0-5.5-5.54c-3.2-2-10.06-3.32-12.58.53-1,1.54-.76,3.74-.93,5.49A25.58,25.58,0,0,1,355.77,70.69Z" transform="translate(-32.24 -8.21)" fill="url(#linear-gradient-4)"/><path d="M357.77,56.45c1.84,1.28,4.16,1.56,6.34,2s4.49,1.35,5.61,3.29c.94,1.63.81,3.62.88,5.5,0,.64.21,1.45.84,1.54,1,.16,1.08-1.55,1.85-2.23a1.54,1.54,0,0,1,2,.15,3,3,0,0,1,.82,2,6.1,6.1,0,0,1-1.66,4.66c2.31.11,3.19,4.16,5.47,3.76a3.09,3.09,0,0,0,1.74-1.29,15.75,15.75,0,0,0,3.42-7.46,10.82,10.82,0,0,0-1.78-7.89,3.62,3.62,0,0,1-.9-1.69,4.21,4.21,0,0,1,.52-1.83,5.31,5.31,0,0,0-4-6.82A6.63,6.63,0,0,0,370.42,43c-2.77.82-4.22,2-7.21,1.57-1.88-.25-3.91-.41-5.51.77C354.2,48,354.19,54,357.77,56.45Z" transform="translate(-32.24 -8.21)" fill="#3e3e54"/><path d="M363.9,85.07a18.92,18.92,0,0,0-5.87.18c-3.37.8-6.09,3.23-8.48,5.73A78.43,78.43,0,0,0,338,106.57a15.55,15.55,0,0,1-3.06,4.31,12.5,12.5,0,0,1-6.17,2.41c-9,1.55-18.2.68-27.28-.15a5.47,5.47,0,0,0-2.35.13c-2,.74-2.38,3.36-2.43,5.49a4.52,4.52,0,0,0,.72,3.14,4.35,4.35,0,0,0,2,1.08l27.09,9.17a14,14,0,0,0,5,1c2.49-.11,4.72-1.52,6.76-3,2.76-2,5.43-4.06,8-6.28l2.57,38.71a10.94,10.94,0,0,0,.82,4.1c1.28,2.61,4.38,3.75,7.26,4.14a49.77,49.77,0,0,0,8.37.2l21.45-.7a6.82,6.82,0,0,0,2.84-.5c2.38-1.17,2.58-4.41,2.57-7.06,0-12.54,2.69-24.93,3.39-37.45.45-8.06,0-16.33-2.5-24.06a35.31,35.31,0,0,0-5.07-10.5c-2-2.62-5.25-2.85-8.3-3.49A128,128,0,0,0,363.9,85.07Z" transform="translate(-32.24 -8.21)" fill="#00b8d9"/><path d="M381,99.63c-.71,5.33,2.47,10.33,5.51,14.77L395,126.93l6.53,9.56a1.78,1.78,0,0,1-.53,3L380.6,155.91a2.41,2.41,0,0,0-.88,1.05,2.27,2.27,0,0,0,.07,1.18,17.13,17.13,0,0,0,2.7,5.75,3.19,3.19,0,0,0,1.91,1.47,3.4,3.4,0,0,0,2-.55,192.66,192.66,0,0,0,23.1-13.93c2.75-1.93,5.65-4.24,6.27-7.54a13.09,13.09,0,0,0-.26-4.74,189.64,189.64,0,0,0-7.72-29,48.83,48.83,0,0,0-6.16-12.78c-2.43-3.32-7.41-9-12.09-7.22C385.48,91.21,381.56,95.22,381,99.63Z" transform="translate(-32.24 -8.21)" fill="#00b8d9"/><path d="M367.23,164.29a7.07,7.07,0,0,0,2.56,2.7l-7.25,5.29a1,1,0,0,0-.43.5,1,1,0,0,0,.4.85c2,1.88,4.79,2.63,7.51,2.89a9.51,9.51,0,0,0,4.53-.43c2-.82,3.38-2.67,4.64-4.43l4.84-6.72a8.77,8.77,0,0,0,1.51-2.74,2.94,2.94,0,0,0-.68-2.92c-2.27-2-5.78,1.07-7.94,2C373.81,162.56,370.06,162.29,367.23,164.29Z" transform="translate(-32.24 -8.21)" fill="url(#linear-gradient-5)"/><path d="M289.39,107c.07.61.84.89,1.05,1.46a1.21,1.21,0,0,1-.75,1.42,3.69,3.69,0,0,1-1.75.16,45.4,45.4,0,0,0-6.9.1c-1.1.11-2.42.42-2.76,1.47a3,3,0,0,0,.81,2.52,13.26,13.26,0,0,0,3.55,3.79c3,1.83,6.58,1.05,9.85,1,2.18,0,4.76.85,5.47-1.87.55-2.09-.7-4.71-1.93-6.33C295.53,110.06,289,104,289.39,107Z" transform="translate(-32.24 -8.21)" fill="url(#linear-gradient-6)"/><path d="M337.5,323.38a7.44,7.44,0,0,0-2.35.95,1.67,1.67,0,0,0,.09,3,7,7,0,0,0,3.95.52,75,75,0,0,0,14.11-2.4,2.66,2.66,0,0,0,1.18-.54,2.69,2.69,0,0,0,.45-2.28c-.45-4.38-.89-8.77-1.35-13.15-.22-2.12-.48-3.43-3.1-2.85a3.13,3.13,0,0,0-2.34,1.86c-1.42,2.74-1.11,6-2.86,8.73A14.42,14.42,0,0,1,337.5,323.38Z" transform="translate(-32.24 -8.21)" fill="#3e3e54"/><path d="M384.83,313.62c.52,3.14-1.27,6.25-3.52,8.51s-5,4-7.19,6.3a1.47,1.47,0,0,0-.52,1c0,.68.85,1,1.52,1.09a44.49,44.49,0,0,0,13.58.13,3.37,3.37,0,0,0,2.43-1.13,3.55,3.55,0,0,0,.39-1.06A107.91,107.91,0,0,0,394,314.17a2.12,2.12,0,0,0-.42-1.88,1.87,1.87,0,0,0-.74-.35,8.84,8.84,0,0,0-8.41,2.22A3.17,3.17,0,0,1,384.83,313.62Z" transform="translate(-32.24 -8.21)" fill="#3e3e54"/><path d="M115.75,75.87c.38-3.71-2.08-7.22-5.15-9.35A17.44,17.44,0,0,0,83.23,80.36c-.11,3.83,1,7.64.64,11.45A14.2,14.2,0,0,1,80.15,100c-2.63,2.82-6.4,4.56-8.46,7.83a12.1,12.1,0,0,0-1,9.75,23.15,23.15,0,0,0,5.11,8.62c1.26,1.42,2.68,2.92,2.85,4.81a1.55,1.55,0,0,0,.26.95,1.34,1.34,0,0,0,.81.3,18.6,18.6,0,0,0,5.16-.17,2.86,2.86,0,0,0,1.22-.42,3.42,3.42,0,0,0,1.11-1.84,89.8,89.8,0,0,1,9.7-20c3.86-5.94,8.41-11.41,12.22-17.38s6.89-12.62,7.35-19.69" transform="translate(-32.24 -8.21)" fill="#3e3e54"/><path d="M91.23,318.78a11.62,11.62,0,0,0,.34,3.77,1.27,1.27,0,0,0,.38.64,1.4,1.4,0,0,0,.63.22,75.61,75.61,0,0,0,18.46.86,1.88,1.88,0,0,0,1-.28.69.69,0,0,0,.2-1,.91.91,0,0,0-.35-.22q-3.63-1.67-7.4-3c-2.07-.71-4.33-1.46-5.51-3.29a7.78,7.78,0,0,1-1-4.17c0-2.56.35-5.1.45-7.65,0-.61,0-1.35-.57-1.66a1.71,1.71,0,0,0-1.1-.09c-1.09.17-3.15.36-4,1.14s-.76,2.84-.88,4C91.54,311.67,91.31,315.23,91.23,318.78Z" transform="translate(-32.24 -8.21)" fill="url(#linear-gradient-7)"/><path d="M122.33,320.8a101.17,101.17,0,0,0,23.2-.58c0-.81-.75-1.4-1.47-1.79-2.91-1.6-6.31-2-9.36-3.32a5.27,5.27,0,0,1-2.14-1.44,6.13,6.13,0,0,1-1-3.48l-.6-9a1.89,1.89,0,0,0-.38-1.22,1.77,1.77,0,0,0-1.39-.36c-1.41.07-4.53.33-5.52,1.5s-.5,4.24-.58,5.64Z" transform="translate(-32.24 -8.21)" fill="url(#linear-gradient-8)"/><path d="M122.29,137.16c.24-.12-.15-.49-.34-.31s-.14.49-.06.75l2.12,7a17.59,17.59,0,0,0,1.19,3.15,18.93,18.93,0,0,0,2.77,3.61c5,5.52,9.56,11.37,14.15,17.21a1.47,1.47,0,0,1,.42,1,1.41,1.41,0,0,1-.54.8l-4.63,4.24a1.52,1.52,0,0,1-2.31.25l-13.58-8.65a21.66,21.66,0,0,1-5.4-4.33,12.41,12.41,0,0,1-1.85-11.36,17.24,17.24,0,0,1,7.41-9.12" transform="translate(-32.24 -8.21)" fill="#00b8d9"/><path d="M117.93,89.77a4.9,4.9,0,0,1,.6,1.24c.26,1.17-.71,2.2-1.3,3.24-1.21,2.14-1.09,5.11-3,6.59a5.56,5.56,0,0,1-4.16.73,36.88,36.88,0,0,0-4.27-.7,1.1,1.1,0,0,0-.6.12,1.07,1.07,0,0,0-.29.94l.16,5.3a14.72,14.72,0,0,1-5,.61,4.2,4.2,0,0,1-1.64-.35A3.88,3.88,0,0,1,97,106.11c-1.58-2.37-1.88-5.34-2.14-8.17a59.61,59.61,0,0,1-.34-10.34,11.39,11.39,0,0,1,1.73-5.74c.82-1.15,2-2,2.88-3.1,1.06-1.25,1.83-2.77,3.09-3.82a10.25,10.25,0,0,1,5.86-1.88,8.78,8.78,0,0,1,5.48.92C118.89,77.48,115.43,85.17,117.93,89.77Z" transform="translate(-32.24 -8.21)" fill="url(#linear-gradient-9)"/><path d="M108.05,73.56a6.93,6.93,0,0,0,1.15,3.15A17.22,17.22,0,0,0,112,80.77a9,9,0,0,0,9.44,1.82,1,1,0,0,0,.62-.48,1.08,1.08,0,0,0,0-.64q-1-4.47-2.06-8.89a3.46,3.46,0,0,0-.55-1.34,3.32,3.32,0,0,0-1.38-.9A16,16,0,0,0,114,69C110.9,68.48,108,70.13,108.05,73.56Z" transform="translate(-32.24 -8.21)" fill="#3e3e54"/><path d="M86.74,137.44l-5.55-16c-.79-2.28-1.6-4.68-1.24-7.07A11.94,11.94,0,0,1,82,109.67a7.58,7.58,0,0,1,3.54-3.21,8.79,8.79,0,0,1,2.5-.36c3.06-.15,6.13-.28,9.2-.41,6.44-.28,13.19.2,17.64,4.86,3.06,3.19,4.22,7.7,5.28,12,1.55,6.34,3.11,12.94,1.78,19.33-.87,4.16-2.94,8.05-3.37,12.27-1,9.86,7,18.72,7,28.63a3.65,3.65,0,0,1-.32,1.74,3.8,3.8,0,0,1-1.59,1.34c-8.28,4.53-18.18,4.8-27.62,4.54-7-.19-14.28-.71-20.19-4.42,3.15-6.88,4.81-14.34,6.45-21.73C84.38,154.8,89.92,146.59,86.74,137.44Z" transform="translate(-32.24 -8.21)" fill="#00b8d9"/><path d="M96.71,126.29l10,8.13a42.69,42.69,0,0,0,6.43,4.62,28.44,28.44,0,0,0,15.19,2.9,85.13,85.13,0,0,0,15.38-2.83,2.87,2.87,0,0,0,1.69-.86,2.57,2.57,0,0,0,.43-1.27,22,22,0,0,0,.17-5.06,115,115,0,0,1-20-1.94c-4.68-.87-9.49-2.13-13.06-5.28-2.58-2.27-4.29-5.34-6.45-8a58,58,0,0,0-4.69-5,18.28,18.28,0,0,0-4.8-3.75,9.32,9.32,0,0,0-11.17,3,5.79,5.79,0,0,0-1.16,4.13c.41,2.53,3.5,3.32,5.12,5A84.37,84.37,0,0,0,96.71,126.29Z" transform="translate(-32.24 -8.21)" fill="#00b8d9"/><path d="M149.91,131.9c1.49-1.22,2.81-3,4.74-3.1a.79.79,0,0,1,.6.16c.37.36,0,.95-.13,1.45a1.58,1.58,0,0,0,1.39,1.63,6.15,6.15,0,0,0,2.36-.25,11.2,11.2,0,0,1,5.24.23c.35,2.3-1.45,4.49-3.6,5.38s-4.57.78-6.9.66l-7.73-.41c-1.55-.08-5.27-1.62-2.82-3.4.78-.56,2.19-.35,3.09-.55A9.11,9.11,0,0,0,149.91,131.9Z" transform="translate(-32.24 -8.21)" fill="url(#linear-gradient-10)"/><path d="M140,178.18a7.19,7.19,0,0,0,5.89,3.21,18.78,18.78,0,0,0,5.84-.35,1.63,1.63,0,0,0,1-.52c.46-.65-.18-1.51-.81-2a12.13,12.13,0,0,0-2.17-1.28,4.08,4.08,0,0,1-1.2-.69,1.14,1.14,0,0,1-.34-1.26c.53-.12,1.08,0,1.6-.17s1-.6.92-1.13-.73-.73-1.26-.84c-3.08-.62-6.46-.93-8.78-3.06-.91-.84-1.79-1.69-3.12-1.16A2.49,2.49,0,0,0,136,171.4c.1,1,1.05,2,1.55,2.85A37.75,37.75,0,0,0,140,178.18Z" transform="translate(-32.24 -8.21)" fill="url(#linear-gradient-11)"/><path d="M89.59,220.66c3.18,28.55,2.39,57.4.61,86.07a39.34,39.34,0,0,0,7.74.49,3.18,3.18,0,0,0,1.9-.51,3.24,3.24,0,0,0,.87-2.41l7.08-91.54a262.53,262.53,0,0,1,12.82,92.35,20.36,20.36,0,0,0,10.75-1.32c4.58-31.93-.81-64.35-6.2-96.16l-4-23.39c.19,1.15-20.08-.58-21.75-.74-4.54-.46-14.54-2.39-17.72,2.06-2.66,3.71.72,9.91,2.25,13.4A72.63,72.63,0,0,1,89.59,220.66Z" transform="translate(-32.24 -8.21)" fill="#3e3e54"/><path d="M102.49,317.61A4,4,0,0,1,104,318a53.6,53.6,0,0,1,9.22,4.83c.77.5,1.63,1.44,1.13,2.22a1.82,1.82,0,0,1-1.54.57,89.34,89.34,0,0,1-19.66-1.36c-1.74-.33-3.93-1-3-3.15a5.3,5.3,0,0,1,4.13-2.83c1.41-.12,2.61.78,4,.73S101,317.63,102.49,317.61Z" transform="translate(-32.24 -8.21)" fill="#3e3e54"/><path d="M133.47,316.56a9.48,9.48,0,0,1-3.61-1,15.16,15.16,0,0,0-6.62-1.58,1.78,1.78,0,0,0-1.47.63,1.9,1.9,0,0,0-.24.88l-.37,3.49a2.81,2.81,0,0,0,.06,1.29c.34.95,1.5,1.27,2.49,1.44a104.65,104.65,0,0,0,18.87,1.48c1.92,0,4.13-.26,5.22-1.84a1.06,1.06,0,0,0,.21-.54,1.27,1.27,0,0,0-.61-.92A32.1,32.1,0,0,0,140,315.5c-1.05-.45-2.28-1.21-3.36-.65S135.08,316.57,133.47,316.56Z" transform="translate(-32.24 -8.21)" fill="#3e3e54"/><path d="M111.46,74.07c-.48,2.24-2.3,3.93-4.16,5.27s-3.91,2.51-5.29,4.34a8.47,8.47,0,0,0-1.46,6.84c-.4.37-1.07.13-1.43-.27a10.27,10.27,0,0,0-1-1.24c-1.12-.85-2.87.29-3.06,1.68a5.16,5.16,0,0,0,1.5,3.8,4.45,4.45,0,0,1,1,1.64c.48,1.8-1.48,3.23-3.15,4.06C92.21,95.71,90.32,91,90.11,86s1.5-10.26,5.41-13.35C98.57,70.21,113.28,65.61,111.46,74.07Z" transform="translate(-32.24 -8.21)" fill="#3e3e54"/><rect x="152.5" y="155.35" width="112.15" height="8.41" fill="url(#linear-gradient-12)"/><rect x="152.5" y="176.84" width="112.15" height="8.41" fill="url(#linear-gradient-13)"/><rect x="152.5" y="198.34" width="112.15" height="8.41" fill="url(#linear-gradient-14)"/></svg>