<?xml version="1.0"?>
<svg xmlns="http://www.w3.org/2000/svg" height="512px" viewBox="0 0 512 512" width="512px" class=""><g transform="matrix(0.95099 0 0 0.95099 12.5465 12.5465)"><path d="m472.003906 401.96875v-351.972656c0-5.511719-4.488281-10-10-10h-43.996094c-5.515624 0-10 4.488281-10 10v421.96875h83.992188c11.046875 0 20 8.953125 20 19.996094 0 11.046874-8.953125 20-20 20h-471.960938c-11.046874 0-19.9999995-8.953126-19.9999995-20v-142.988282c0-27.566406 22.4296875-49.996094 49.9960935-49.996094h43.996094c27.570312 0 49.996094 22.429688 49.996094 49.996094v52.996094c0 11.046875-8.953125 20-19.996094 20-11.046875 0-20-8.953125-20-20v-52.996094c0-5.511718-4.484375-10-10-10h-43.996094c-5.511718 0-10 4.488282-10 10v122.992188h143.992188v-261.980469c0-27.570313 22.425781-49.996094 49.996094-49.996094h43.996093c27.566407 0 49.996094 22.425781 49.996094 49.996094v191.984375c0 11.046875-8.953125 20-20 20-11.042969 0-20-8.953125-20-20v-191.984375c0-5.515625-4.484375-10-9.996094-10h-43.996093c-5.515626 0-10 4.484375-10 10v261.980469h143.988281v-421.96875c0-27.566406 22.429687-49.996094 49.996093-49.996094h43.996094c27.566406 0 49.996094 22.429688 49.996094 49.996094v351.972656c0 11.046875-8.953125 20-20 20-11.042969 0-19.996094-8.953125-19.996094-20zm-392.335937-222.984375h-29.78125c-4.914063 0-9.890625-3.089844-9.890625-8.996094 0-11.046875-8.953125-20-19.996094-20-11.046875 0-20 8.953125-20 20 0 26.855469 20.945312 48.015625 48.015625 48.949219v11.042969c0 11.046875 8.953125 20 20 20 11.042969 0 19.996094-8.953125 19.996094-20v-11.582031c27.511719-3.84375 48.019531-26.46875 48.019531-54.664063v-1.75c0-31.425781-25.285156-56.992187-56.363281-56.992187h-18.324219c-9.113281 0-16.253906-6.957032-16.253906-15.84375v-1.449219c0-8.953125 6.988281-15.703125 16.253906-15.703125h17.328125c5.09375 0 10.359375 3.40625 10.359375 9.113281 0 11.046875 8.957031 20 20 20 11.046875 0 20-8.953125 20-20 0-23.96875-17.699219-43.964844-41.019531-48.25v-12.859375c0-11.046875-8.953125-20-19.996094-20-11.046875 0-20 8.953125-20 20v13.546875c-9.898437 2.335937-18.964844 7.269531-26.316406 14.464844-10.710938 10.480469-16.605469 24.574219-16.605469 39.6875v1.449219c0 15.105468 5.882812 29.210937 16.566406 39.722656 10.566406 10.394531 24.660156 16.117187 39.683594 16.117187h18.324219c8.871093 0 16.363281 7.785157 16.363281 16.996094v1.75c0 8.695313-7.035156 15.25-16.363281 15.25zm0 0" data-original="#000000" class="active-path" data-old_color="#000000" fill="#FFFFFF"/></g> </svg>
