<?xml version="1.0"?>
<svg xmlns="http://www.w3.org/2000/svg" xmlns:xlink="http://www.w3.org/1999/xlink" version="1.1" id="Capa_1" x="0px" y="0px" width="512px" height="512px" viewBox="0 0 30.822 30.823" style="enable-background:new 0 0 30.822 30.823;" xml:space="preserve"><g><g>
	<path d="M29.963,8.441c0-0.038-0.012-0.073-0.016-0.11c-0.008-0.049-0.01-0.1-0.021-0.147c-0.01-0.035-0.028-0.065-0.041-0.099   c-0.02-0.048-0.035-0.097-0.062-0.141c-0.017-0.029-0.041-0.053-0.061-0.08c-0.032-0.043-0.062-0.087-0.1-0.125   c-0.025-0.025-0.058-0.043-0.086-0.065c-0.037-0.03-0.072-0.064-0.115-0.088c-0.002-0.002-0.006-0.002-0.01-0.004   c-0.004-0.001-0.006-0.004-0.009-0.006l-13.55-7.452c-0.299-0.165-0.664-0.165-0.963,0L1.379,7.576   C1.376,7.577,1.375,7.58,1.372,7.582C1.368,7.584,1.364,7.584,1.361,7.586C1.317,7.611,1.283,7.645,1.245,7.675   c-0.027,0.022-0.059,0.04-0.084,0.064c-0.039,0.038-0.068,0.083-0.1,0.126C1.041,7.892,1.017,7.915,1,7.944   C0.974,7.989,0.957,8.039,0.937,8.087C0.924,8.12,0.907,8.15,0.896,8.184C0.884,8.232,0.88,8.283,0.875,8.333   C0.872,8.37,0.859,8.404,0.859,8.441c0,0.002,0.001,0.003,0.001,0.005c0,0.001-0.001,0.003-0.001,0.005V22   c0,0.356,0.19,0.688,0.5,0.865l13.55,7.823c0.154,0.089,0.327,0.134,0.5,0.134s0.346-0.043,0.5-0.134l13.549-7.823   c0.311-0.179,0.5-0.509,0.5-0.865V8.451c0-0.002,0-0.003,0-0.005C29.961,8.444,29.963,8.443,29.963,8.441z M20.726,12.051   l-4.313-2.372V2.69l10.514,5.782L20.726,12.051z M14.413,2.69v6.989L10.1,12.052L3.9,8.473L14.413,2.69z M2.863,10.183l11.55,6.668   v11.24l-11.55-6.668V10.183z M16.412,28.091v-11.24l11.551-6.668v11.24L16.412,28.091z" data-original="#000000" class="active-path" data-old_color="#000000" fill="#FFFFFF"/>
</g></g> </svg>
