<svg xmlns="http://www.w3.org/2000/svg" xmlns:xlink="http://www.w3.org/1999/xlink" width="63" height="63" viewBox="0 0 63 63"><defs><path id="sqhda" d="M1322 2741.25c8.08 0 14.65 6.62 14.65 14.75 0 8.13-6.57 14.74-14.65 14.74a14.72 14.72 0 0 1-14.65-14.74c0-8.13 6.57-14.75 14.65-14.75zm0 1.97c-7 0-12.7 5.73-12.7 12.78 0 7.04 5.7 12.77 12.7 12.77 7 0 12.7-5.73 12.7-12.77 0-7.05-5.7-12.78-12.7-12.78zm-.98 5.9v1.96h1.96v-1.96h1.95v2.14a2.94 2.94 0 0 1 1.2 4.74 2.95 2.95 0 0 1-1.2 4.73v2.15h-1.95v-1.97h-1.96v1.97h-1.95v-1.97h-1.96v-9.83h1.96v-1.96zm3.91 8.84a.98.98 0 0 0-.98-.98h-4.88v1.97h4.88c.54 0 .98-.45.98-.99zm-5.86-4.91v1.96h4.88a.98.98 0 0 0 0-1.96zm2.93-7.87c2.47 0 4.89.87 6.8 2.45l-1.24 1.52a8.78 8.78 0 0 0-14.35 6.85c0 2.03.7 4.02 1.98 5.6l-1.51 1.24a10.87 10.87 0 0 1-2.43-6.84 10.8 10.8 0 0 1 10.75-10.82zm8.8 10.82a8.9 8.9 0 0 0-2-5.6l1.52-1.25a10.87 10.87 0 0 1 2.43 6.85 10.73 10.73 0 1 1-17.55 8.37l1.24-1.52a8.78 8.78 0 0 0 14.35-6.85zm-21.71-17.78l12.91-2.9 18.56 4.16v20.45h-1.95v-18.87l-16.61-3.72-12.49 2.8zm-11.51 3.03h1.95v1.97h-1.95zm48.84 31.46v2.95h4.11l-9 10.34-8.98-10.34h4.1v-5.2a13.64 13.64 0 0 1-3.65 2.73l-11 5.53-11-5.53a13.7 13.7 0 0 1-7.56-12.31v-10.37l-10.06 10.11-1.38-1.39 13.4-13.47v-11.39h1.75l-4.69-5.39-4.69 5.39h1.76v4.92h-1.95v-2.95h-4.11l8.99-10.34 9 10.34h-4.11v10.23l-1.96 1.97v12.34c0 4.5 2.48 8.54 6.48 10.55l10.13 5.1 10.13-5.1c1.83-.93 3.4-2.33 4.52-4.05v-1.96l13.97-14.05 1.38 1.39-13.4 13.47v11.4h-1.75l4.69 5.38 4.68-5.39h-1.75v-4.91zm-1.95-3.94h1.95v1.97h-1.95z"/></defs><g><g transform="translate(-1290 -2724)"><use fill="#fff" xlink:href="#sqhda"/></g></g></svg>