<svg xmlns="http://www.w3.org/2000/svg" xmlns:xlink="http://www.w3.org/1999/xlink" width="63" height="63" viewBox="0 0 63 63"><defs><path id="ikvfa" d="M1088.84 2753.06a2.9 2.9 0 0 1-.74 1.94 2.89 2.89 0 0 1-1.2 4.66v2.11h-1.93v-1.93h-1.94v1.93h-1.93v-1.93h-1.94v-9.68h1.94v-1.94h1.93v1.94h1.94v-1.94h1.93v2.12a2.9 2.9 0 0 1 1.94 2.72zm-1.94 3.87a.97.97 0 0 0-.96-.97h-4.84v1.94h4.84c.53 0 .96-.44.96-.97zm0-3.87a.97.97 0 0 0-.96-.97h-4.84v1.94h4.84c.53 0 .96-.44.96-.97zm-11.61 1.94c0 2 .7 3.96 1.97 5.5l-1.5 1.23a10.66 10.66 0 0 1 14.98-14.98l-1.23 1.5a8.72 8.72 0 0 0-14.22 6.75zm16.95-6.74a10.66 10.66 0 0 1-14.98 14.98l1.23-1.5a8.72 8.72 0 0 0 12.25-12.25zm21.76 5.77a3.87 3.87 0 0 1-3.87 3.87l-.33-.03-3.66 10.37a2.88 2.88 0 0 1-1.82 5.14c-.4 0-.78-.08-1.13-.23l-6.96 7.59c.22.4.35.86.35 1.35a2.9 2.9 0 1 1-5.63.97h-8.1a2.9 2.9 0 0 1-5.62-.97c0-.49.13-.94.35-1.35l-6.29-6.86a3.8 3.8 0 0 1-1.8.47 3.87 3.87 0 0 1-3.88-3.87c0-.15.03-.29.05-.44l-6.56-2.52a2.89 2.89 0 1 1-3.16-4.6v-20.68a2.9 2.9 0 1 1 2.57-5.14l6.43-4.82a3.85 3.85 0 0 1 3.58-5.35c1.62 0 3 1 3.58 2.43l15.84-2.07a2.9 2.9 0 0 1 5.74.6c0 .88-.4 1.65-1 2.18l1.85 4.62.11-.02c1.08 0 2 .6 2.51 1.47l5.28-.96a2.9 2.9 0 1 1 4.52 2.83l3.38 12.17a3.87 3.87 0 0 1 3.67 3.85zm-9.68-18.39a.97.97 0 1 0 1.94 0 .97.97 0 0 0-1.94 0zm-7.1 3.26l11.06 11.75.15-.08-3.34-12.05a2.89 2.89 0 0 1-2.3-1.44l-5.29.96c-.05.3-.15.6-.28.86zm-1.4 1.33a2.88 2.88 0 0 1-1.8.18l-1.7 2.71a14.52 14.52 0 0 1 6.12 10.4l7.9-.3c.1-.46.28-.87.52-1.25zm-11.82 2.19a12.6 12.6 0 0 0-12.58 12.58 12.6 12.6 0 0 0 12.58 12.58 12.6 12.6 0 0 0 12.58-12.58 12.6 12.6 0 0 0-12.58-12.58zm9.68-4.84a.97.97 0 1 0 1.93 0 .97.97 0 0 0-1.93 0zm-3.87-9.68a.97.97 0 1 0 1.93 0 .97.97 0 0 0-1.93 0zm-18.47 5.53l5.67 8.85a14.43 14.43 0 0 1 13.66-.16l1.71-2.75a2.88 2.88 0 0 1 .35-3.96l-1.84-4.62-.12.01a2.9 2.9 0 0 1-2.57-1.59l-15.86 2.07c-.1.82-.46 1.57-1 2.15zm-1.63 1.03c-.23.08-.48.13-.73.17l-1.08 8.12a2.9 2.9 0 0 1 1.54 3.05l2.38 1.32a14.6 14.6 0 0 1 3.57-3.78zm-3.13-3.66a1.94 1.94 0 1 0 3.87 0 1.94 1.94 0 0 0-3.87 0zm0 13.55a.97.97 0 1 0 0 1.94.97.97 0 0 0 0-1.94zm-6.92-5.7a2.85 2.85 0 0 1 .09 1.44l5 3c.35-.3.77-.51 1.23-.61l1.08-8.1a3.9 3.9 0 0 1-.95-.57zm-3.72.86a.97.97 0 1 0 1.93 0 .97.97 0 0 0-1.93 0zm1.93 26.13a.97.97 0 1 0-1.93 0 .97.97 0 0 0 1.93 0zm0-4.28l6.66-13.99a2.9 2.9 0 0 1-.8-2.63l-5-3c-.25.21-.54.38-.86.5zm11.61 5.25c.68 0 1.3.19 1.85.49l2.07-2.22a14.44 14.44 0 0 1-2.52-16.06l-2.39-1.33c-.51.45-1.18.73-1.91.73l-.3-.03-7.33 15.4c.53.52.86 1.25.86 2.05l-.01.08 6.54 2.51a3.86 3.86 0 0 1 3.14-1.62zm1.94 3.87a1.94 1.94 0 1 0-3.87 0 1.94 1.94 0 0 0 3.87 0zm9.68 11.61a.97.97 0 1 0-1.94 0 .97.97 0 0 0 1.94 0zm10.54-2.06l-3.82-11.05a14.37 14.37 0 0 1-13.01-2.76l-2.06 2.2a3.84 3.84 0 0 1-.02 4.16l6.26 6.84a2.9 2.9 0 0 1 3.86 1.7h8.1c.15-.41.38-.79.69-1.1zm3 2.06a.97.97 0 1 0-1.93 0 .97.97 0 0 0 1.93 0zm7.13-10.26c-.22-.4-.35-.86-.35-1.35 0-.34.07-.66.18-.96l-6.46-5.23a14.6 14.6 0 0 1-5.49 4.08l3.76 10.85.27-.03c.4 0 .78.08 1.13.23zm3.52-1.35a.97.97 0 1 0-1.94 0 .97.97 0 0 0 1.94 0zm2.68-13.24a3.87 3.87 0 0 1-1.53-2.1l-7.95.32a14.41 14.41 0 0 1-2.22 7.26l6.54 5.3c.44-.28.95-.44 1.5-.44zm4.1-3.21a1.94 1.94 0 1 0-3.88 0 1.94 1.94 0 0 0 3.87 0z"/></defs><g><g transform="translate(-1052 -2723)"><use fill="#fff" xlink:href="#ikvfa"/></g></g></svg>